<mxfile host="app.diagrams.net" agent="Mozilla/5.0 (X11; Linux x86_64; rv:139.0) Gecko/20100101 Firefox/139.0" version="27.1.1">
  <diagram name="Page-1" id="JcqKBOb1F13oiYuU-APF">
    <mxGraphModel dx="2351" dy="839" grid="1" gridSize="10" guides="1" tooltips="1" connect="1" arrows="1" fold="1" page="1" pageScale="1" pageWidth="850" pageHeight="1100" math="0" shadow="0">
      <root>
        <mxCell id="0" />
        <mxCell id="1" parent="0" />
        <mxCell id="2_qpchY4eQDPO05ME19w-9" value="" style="group" parent="1" vertex="1" connectable="0">
          <mxGeometry x="-180" y="640" width="230" height="210" as="geometry" />
        </mxCell>
        <mxCell id="2_qpchY4eQDPO05ME19w-10" value="" style="edgeStyle=orthogonalEdgeStyle;rounded=0;orthogonalLoop=1;jettySize=auto;html=1;" parent="2_qpchY4eQDPO05ME19w-9" source="2_qpchY4eQDPO05ME19w-11" edge="1">
          <mxGeometry relative="1" as="geometry">
            <mxPoint x="115" y="120" as="targetPoint" />
          </mxGeometry>
        </mxCell>
        <mxCell id="2_qpchY4eQDPO05ME19w-11" value="Ingredient" style="rounded=0;whiteSpace=wrap;html=1;" parent="2_qpchY4eQDPO05ME19w-9" vertex="1">
          <mxGeometry width="230" height="30" as="geometry" />
        </mxCell>
        <mxCell id="2_qpchY4eQDPO05ME19w-12" value="&lt;div&gt;- ID : string&lt;/div&gt;&lt;div&gt;-&amp;nbsp;name :&amp;nbsp;string&lt;/div&gt;&lt;div&gt;- season : string&lt;/div&gt;&lt;div&gt;- Recipe : Foreign Key&lt;/div&gt;" style="rounded=0;whiteSpace=wrap;html=1;" parent="2_qpchY4eQDPO05ME19w-9" vertex="1">
          <mxGeometry y="30" width="230" height="90" as="geometry" />
        </mxCell>
        <mxCell id="2_qpchY4eQDPO05ME19w-13" value="" style="rounded=0;whiteSpace=wrap;html=1;" parent="2_qpchY4eQDPO05ME19w-9" vertex="1">
          <mxGeometry y="120" width="230" height="90" as="geometry" />
        </mxCell>
        <mxCell id="2_qpchY4eQDPO05ME19w-14" value="ID - uuid but no increment ?" style="text;html=1;align=center;verticalAlign=middle;whiteSpace=wrap;rounded=0;" parent="1" vertex="1">
          <mxGeometry x="-140" y="335" width="240" height="30" as="geometry" />
        </mxCell>
        <mxCell id="2_qpchY4eQDPO05ME19w-15" value="&lt;div&gt;Recipe - ingredients =&amp;gt; association table ?&lt;/div&gt;" style="text;html=1;align=center;verticalAlign=middle;whiteSpace=wrap;rounded=0;" parent="1" vertex="1">
          <mxGeometry x="-140" y="365" width="240" height="30" as="geometry" />
        </mxCell>
        <mxCell id="2_qpchY4eQDPO05ME19w-20" value="&lt;div&gt;Recipe - instructions =&amp;gt; String ?&lt;/div&gt;&lt;div&gt;If string, no layout&lt;/div&gt;&lt;div&gt;Has to be stages&lt;/div&gt;&lt;div&gt;Association table ?&lt;/div&gt;" style="text;html=1;align=center;verticalAlign=middle;whiteSpace=wrap;rounded=0;" parent="1" vertex="1">
          <mxGeometry x="-140" y="415" width="240" height="30" as="geometry" />
        </mxCell>
        <mxCell id="2_qpchY4eQDPO05ME19w-23" value="" style="group" parent="1" vertex="1" connectable="0">
          <mxGeometry x="639" y="618" width="230" height="210" as="geometry" />
        </mxCell>
        <mxCell id="2_qpchY4eQDPO05ME19w-24" value="" style="edgeStyle=orthogonalEdgeStyle;rounded=0;orthogonalLoop=1;jettySize=auto;html=1;" parent="2_qpchY4eQDPO05ME19w-23" source="2_qpchY4eQDPO05ME19w-25" edge="1">
          <mxGeometry relative="1" as="geometry">
            <mxPoint x="115" y="120" as="targetPoint" />
          </mxGeometry>
        </mxCell>
        <mxCell id="2_qpchY4eQDPO05ME19w-25" value="Tag" style="rounded=0;whiteSpace=wrap;html=1;" parent="2_qpchY4eQDPO05ME19w-23" vertex="1">
          <mxGeometry width="230" height="30" as="geometry" />
        </mxCell>
        <mxCell id="2_qpchY4eQDPO05ME19w-26" value="&lt;div&gt;- ID : string&lt;/div&gt;&lt;div&gt;- Name : string&lt;br&gt;- Recipe : Foreign Key&lt;/div&gt;" style="rounded=0;whiteSpace=wrap;html=1;" parent="2_qpchY4eQDPO05ME19w-23" vertex="1">
          <mxGeometry y="30" width="230" height="90" as="geometry" />
        </mxCell>
        <mxCell id="2_qpchY4eQDPO05ME19w-27" value="" style="rounded=0;whiteSpace=wrap;html=1;" parent="2_qpchY4eQDPO05ME19w-23" vertex="1">
          <mxGeometry y="120" width="230" height="90" as="geometry" />
        </mxCell>
        <mxCell id="k0aN1hesgMusfAzjtdi0-1" value="" style="group" parent="1" vertex="1" connectable="0">
          <mxGeometry x="289" y="878" width="230" height="210" as="geometry" />
        </mxCell>
        <mxCell id="k0aN1hesgMusfAzjtdi0-2" value="" style="edgeStyle=orthogonalEdgeStyle;rounded=0;orthogonalLoop=1;jettySize=auto;html=1;" parent="k0aN1hesgMusfAzjtdi0-1" source="k0aN1hesgMusfAzjtdi0-3" edge="1">
          <mxGeometry relative="1" as="geometry">
            <mxPoint x="115" y="120" as="targetPoint" />
          </mxGeometry>
        </mxCell>
        <mxCell id="k0aN1hesgMusfAzjtdi0-3" value="Instruction" style="rounded=0;whiteSpace=wrap;html=1;" parent="k0aN1hesgMusfAzjtdi0-1" vertex="1">
          <mxGeometry width="230" height="30" as="geometry" />
        </mxCell>
        <mxCell id="k0aN1hesgMusfAzjtdi0-4" value="&lt;div&gt;- ID : string&lt;/div&gt;&lt;div&gt;- Text : string&lt;/div&gt;&lt;div&gt;- Recipe : Foreign Key&lt;/div&gt;" style="rounded=0;whiteSpace=wrap;html=1;" parent="k0aN1hesgMusfAzjtdi0-1" vertex="1">
          <mxGeometry y="30" width="230" height="90" as="geometry" />
        </mxCell>
        <mxCell id="k0aN1hesgMusfAzjtdi0-5" value="" style="rounded=0;whiteSpace=wrap;html=1;" parent="k0aN1hesgMusfAzjtdi0-1" vertex="1">
          <mxGeometry y="120" width="230" height="90" as="geometry" />
        </mxCell>
        <mxCell id="k0aN1hesgMusfAzjtdi0-6" value="Contains" style="edgeStyle=orthogonalEdgeStyle;rounded=0;orthogonalLoop=1;jettySize=auto;html=1;exitX=0.5;exitY=1;exitDx=0;exitDy=0;entryX=0.5;entryY=0;entryDx=0;entryDy=0;" parent="1" target="k0aN1hesgMusfAzjtdi0-3" edge="1">
          <mxGeometry relative="1" as="geometry">
            <mxPoint x="404.00000000000045" y="753.0000000000002" as="sourcePoint" />
          </mxGeometry>
        </mxCell>
        <mxCell id="k0aN1hesgMusfAzjtdi0-8" value="1..*" style="text;html=1;align=center;verticalAlign=middle;whiteSpace=wrap;rounded=0;" parent="1" vertex="1">
          <mxGeometry x="399" y="838" width="60" height="30" as="geometry" />
        </mxCell>
        <mxCell id="k0aN1hesgMusfAzjtdi0-30" value="Mention CRUDs ?" style="text;html=1;align=center;verticalAlign=middle;whiteSpace=wrap;rounded=0;" parent="1" vertex="1">
          <mxGeometry x="-140" y="305" width="240" height="30" as="geometry" />
        </mxCell>
        <mxCell id="uTu99uXTamUOCDoSQrbE-17" value="" style="group" vertex="1" connectable="0" parent="1">
          <mxGeometry x="20" y="10" width="240" height="210" as="geometry" />
        </mxCell>
        <mxCell id="uTu99uXTamUOCDoSQrbE-2" value="User table" style="rounded=0;whiteSpace=wrap;html=1;" vertex="1" parent="uTu99uXTamUOCDoSQrbE-17">
          <mxGeometry width="240" height="30" as="geometry" />
        </mxCell>
        <mxCell id="uTu99uXTamUOCDoSQrbE-5" value="user_id&lt;span style=&quot;white-space: pre;&quot;&gt;&#x9;&lt;/span&gt;" style="rounded=0;whiteSpace=wrap;html=1;" vertex="1" parent="uTu99uXTamUOCDoSQrbE-17">
          <mxGeometry y="30" width="120" height="30" as="geometry" />
        </mxCell>
        <mxCell id="uTu99uXTamUOCDoSQrbE-6" value="string" style="rounded=0;whiteSpace=wrap;html=1;" vertex="1" parent="uTu99uXTamUOCDoSQrbE-17">
          <mxGeometry x="120" y="30" width="120" height="30" as="geometry" />
        </mxCell>
        <mxCell id="uTu99uXTamUOCDoSQrbE-7" value="email" style="rounded=0;whiteSpace=wrap;html=1;" vertex="1" parent="uTu99uXTamUOCDoSQrbE-17">
          <mxGeometry y="60" width="120" height="30" as="geometry" />
        </mxCell>
        <mxCell id="uTu99uXTamUOCDoSQrbE-8" value="string" style="rounded=0;whiteSpace=wrap;html=1;" vertex="1" parent="uTu99uXTamUOCDoSQrbE-17">
          <mxGeometry x="120" y="60" width="120" height="30" as="geometry" />
        </mxCell>
        <mxCell id="uTu99uXTamUOCDoSQrbE-9" value="(hashed) string" style="rounded=0;whiteSpace=wrap;html=1;" vertex="1" parent="uTu99uXTamUOCDoSQrbE-17">
          <mxGeometry x="120" y="90" width="120" height="30" as="geometry" />
        </mxCell>
        <mxCell id="uTu99uXTamUOCDoSQrbE-10" value="password" style="rounded=0;whiteSpace=wrap;html=1;" vertex="1" parent="uTu99uXTamUOCDoSQrbE-17">
          <mxGeometry y="90" width="120" height="30" as="geometry" />
        </mxCell>
        <mxCell id="uTu99uXTamUOCDoSQrbE-11" value="isAdmin" style="rounded=0;whiteSpace=wrap;html=1;" vertex="1" parent="uTu99uXTamUOCDoSQrbE-17">
          <mxGeometry y="120" width="120" height="30" as="geometry" />
        </mxCell>
        <mxCell id="uTu99uXTamUOCDoSQrbE-12" value="bool" style="rounded=0;whiteSpace=wrap;html=1;" vertex="1" parent="uTu99uXTamUOCDoSQrbE-17">
          <mxGeometry x="120" y="120" width="120" height="30" as="geometry" />
        </mxCell>
        <mxCell id="uTu99uXTamUOCDoSQrbE-18" value="" style="group" vertex="1" connectable="0" parent="1">
          <mxGeometry x="670" y="90" width="240" height="377" as="geometry" />
        </mxCell>
        <mxCell id="uTu99uXTamUOCDoSQrbE-19" value="Collection table" style="rounded=0;whiteSpace=wrap;html=1;" vertex="1" parent="uTu99uXTamUOCDoSQrbE-18">
          <mxGeometry width="240" height="30" as="geometry" />
        </mxCell>
        <mxCell id="uTu99uXTamUOCDoSQrbE-20" value="collection_id&lt;span style=&quot;white-space: pre;&quot;&gt;&#x9;&lt;/span&gt;" style="rounded=0;whiteSpace=wrap;html=1;" vertex="1" parent="uTu99uXTamUOCDoSQrbE-18">
          <mxGeometry y="30" width="120" height="30" as="geometry" />
        </mxCell>
        <mxCell id="uTu99uXTamUOCDoSQrbE-21" value="string" style="rounded=0;whiteSpace=wrap;html=1;" vertex="1" parent="uTu99uXTamUOCDoSQrbE-18">
          <mxGeometry x="120" y="30" width="120" height="30" as="geometry" />
        </mxCell>
        <mxCell id="uTu99uXTamUOCDoSQrbE-22" value="name" style="rounded=0;whiteSpace=wrap;html=1;" vertex="1" parent="uTu99uXTamUOCDoSQrbE-18">
          <mxGeometry y="60" width="120" height="30" as="geometry" />
        </mxCell>
        <mxCell id="uTu99uXTamUOCDoSQrbE-23" value="string" style="rounded=0;whiteSpace=wrap;html=1;" vertex="1" parent="uTu99uXTamUOCDoSQrbE-18">
          <mxGeometry x="120" y="60" width="120" height="30" as="geometry" />
        </mxCell>
        <mxCell id="uTu99uXTamUOCDoSQrbE-28" value="" style="edgeStyle=entityRelationEdgeStyle;fontSize=12;html=1;endArrow=ERoneToMany;rounded=0;exitX=1;exitY=1;exitDx=0;exitDy=0;entryX=0;entryY=0.5;entryDx=0;entryDy=0;" edge="1" parent="1" source="uTu99uXTamUOCDoSQrbE-8" target="uTu99uXTamUOCDoSQrbE-20">
          <mxGeometry width="100" height="100" relative="1" as="geometry">
            <mxPoint x="400" y="320" as="sourcePoint" />
            <mxPoint x="500" y="220" as="targetPoint" />
          </mxGeometry>
        </mxCell>
        <mxCell id="uTu99uXTamUOCDoSQrbE-29" value="" style="group" vertex="1" connectable="0" parent="1">
          <mxGeometry x="299" y="305" width="240" height="210" as="geometry" />
        </mxCell>
        <mxCell id="uTu99uXTamUOCDoSQrbE-30" value="Recipe table" style="rounded=0;whiteSpace=wrap;html=1;" vertex="1" parent="uTu99uXTamUOCDoSQrbE-29">
          <mxGeometry width="240" height="30" as="geometry" />
        </mxCell>
        <mxCell id="uTu99uXTamUOCDoSQrbE-31" value="recipe_id&lt;span style=&quot;white-space: pre;&quot;&gt;&#x9;&lt;/span&gt;" style="rounded=0;whiteSpace=wrap;html=1;" vertex="1" parent="uTu99uXTamUOCDoSQrbE-29">
          <mxGeometry y="30" width="120" height="30" as="geometry" />
        </mxCell>
        <mxCell id="uTu99uXTamUOCDoSQrbE-32" value="string" style="rounded=0;whiteSpace=wrap;html=1;" vertex="1" parent="uTu99uXTamUOCDoSQrbE-29">
          <mxGeometry x="120" y="30" width="120" height="30" as="geometry" />
        </mxCell>
        <mxCell id="uTu99uXTamUOCDoSQrbE-33" value="name" style="rounded=0;whiteSpace=wrap;html=1;" vertex="1" parent="uTu99uXTamUOCDoSQrbE-29">
          <mxGeometry y="60" width="120" height="30" as="geometry" />
        </mxCell>
        <mxCell id="uTu99uXTamUOCDoSQrbE-34" value="string" style="rounded=0;whiteSpace=wrap;html=1;" vertex="1" parent="uTu99uXTamUOCDoSQrbE-29">
          <mxGeometry x="120" y="60" width="120" height="30" as="geometry" />
        </mxCell>
        <mxCell id="uTu99uXTamUOCDoSQrbE-35" value="int" style="rounded=0;whiteSpace=wrap;html=1;" vertex="1" parent="uTu99uXTamUOCDoSQrbE-29">
          <mxGeometry x="120" y="90" width="120" height="30" as="geometry" />
        </mxCell>
        <mxCell id="uTu99uXTamUOCDoSQrbE-36" value="prep_time" style="rounded=0;whiteSpace=wrap;html=1;" vertex="1" parent="uTu99uXTamUOCDoSQrbE-29">
          <mxGeometry y="90" width="120" height="30" as="geometry" />
        </mxCell>
        <mxCell id="uTu99uXTamUOCDoSQrbE-37" value="instructions" style="rounded=0;whiteSpace=wrap;html=1;" vertex="1" parent="uTu99uXTamUOCDoSQrbE-29">
          <mxGeometry y="120" width="120" height="30" as="geometry" />
        </mxCell>
        <mxCell id="uTu99uXTamUOCDoSQrbE-38" value="string" style="rounded=0;whiteSpace=wrap;html=1;" vertex="1" parent="uTu99uXTamUOCDoSQrbE-29">
          <mxGeometry x="120" y="120" width="120" height="30" as="geometry" />
        </mxCell>
        <mxCell id="uTu99uXTamUOCDoSQrbE-40" value="" style="edgeStyle=entityRelationEdgeStyle;fontSize=12;html=1;endArrow=ERoneToMany;rounded=0;exitX=0;exitY=0.5;exitDx=0;exitDy=0;entryX=1;entryY=0.5;entryDx=0;entryDy=0;" edge="1" parent="1" source="uTu99uXTamUOCDoSQrbE-22" target="uTu99uXTamUOCDoSQrbE-34">
          <mxGeometry width="100" height="100" relative="1" as="geometry">
            <mxPoint x="270" y="133" as="sourcePoint" />
            <mxPoint x="644" y="88" as="targetPoint" />
          </mxGeometry>
        </mxCell>
        <mxCell id="uTu99uXTamUOCDoSQrbE-42" value="" style="edgeStyle=entityRelationEdgeStyle;fontSize=12;html=1;endArrow=ERoneToMany;rounded=0;exitX=0.5;exitY=1;exitDx=0;exitDy=0;entryX=0;entryY=0.5;entryDx=0;entryDy=0;" edge="1" parent="1" source="uTu99uXTamUOCDoSQrbE-12" target="uTu99uXTamUOCDoSQrbE-33">
          <mxGeometry width="100" height="100" relative="1" as="geometry">
            <mxPoint x="704" y="133" as="sourcePoint" />
            <mxPoint x="549" y="390" as="targetPoint" />
          </mxGeometry>
        </mxCell>
        <mxCell id="uTu99uXTamUOCDoSQrbE-43" value="" style="group" vertex="1" connectable="0" parent="1">
          <mxGeometry x="110" y="540" width="240" height="210" as="geometry" />
        </mxCell>
        <mxCell id="uTu99uXTamUOCDoSQrbE-44" value="Ingredient table" style="rounded=0;whiteSpace=wrap;html=1;" vertex="1" parent="uTu99uXTamUOCDoSQrbE-43">
          <mxGeometry width="240" height="30" as="geometry" />
        </mxCell>
        <mxCell id="uTu99uXTamUOCDoSQrbE-45" value="ingredient_id&lt;span style=&quot;white-space: pre;&quot;&gt;&#x9;&lt;/span&gt;" style="rounded=0;whiteSpace=wrap;html=1;" vertex="1" parent="uTu99uXTamUOCDoSQrbE-43">
          <mxGeometry y="30" width="120" height="30" as="geometry" />
        </mxCell>
        <mxCell id="uTu99uXTamUOCDoSQrbE-46" value="string" style="rounded=0;whiteSpace=wrap;html=1;" vertex="1" parent="uTu99uXTamUOCDoSQrbE-43">
          <mxGeometry x="120" y="30" width="120" height="30" as="geometry" />
        </mxCell>
        <mxCell id="uTu99uXTamUOCDoSQrbE-47" value="name" style="rounded=0;whiteSpace=wrap;html=1;" vertex="1" parent="uTu99uXTamUOCDoSQrbE-43">
          <mxGeometry y="60" width="120" height="30" as="geometry" />
        </mxCell>
        <mxCell id="uTu99uXTamUOCDoSQrbE-48" value="string" style="rounded=0;whiteSpace=wrap;html=1;" vertex="1" parent="uTu99uXTamUOCDoSQrbE-43">
          <mxGeometry x="120" y="60" width="120" height="30" as="geometry" />
        </mxCell>
        <mxCell id="uTu99uXTamUOCDoSQrbE-49" value="string" style="rounded=0;whiteSpace=wrap;html=1;" vertex="1" parent="uTu99uXTamUOCDoSQrbE-43">
          <mxGeometry x="120" y="90" width="120" height="30" as="geometry" />
        </mxCell>
        <mxCell id="uTu99uXTamUOCDoSQrbE-50" value="season" style="rounded=0;whiteSpace=wrap;html=1;" vertex="1" parent="uTu99uXTamUOCDoSQrbE-43">
          <mxGeometry y="90" width="120" height="30" as="geometry" />
        </mxCell>
      </root>
    </mxGraphModel>
  </diagram>
</mxfile>
